<svg xmlns="http://www.w3.org/2000/svg" fill="none" viewBox="0 0 80 34"><rect width="80" height="34" fill="#FF6838" rx="17"/><path fill="#fff" fill-rule="evenodd" d="M41.7929 18.2638c-1.4319 1.4319-3.7535 1.4319-5.1854 0-1.432-1.432-1.432-3.7536 0-5.1855 1.4319-1.4319 3.7535-1.4319 5.1854 0 1.4319 1.4319 1.4319 3.7535 0 5.1855Zm.4404 1.3829c-1.9602 1.4994-4.7758 1.3527-6.5686-.4401-1.9527-1.9526-1.9527-5.1185 0-7.0711 1.9526-1.9526 5.1184-1.9526 7.071 0 1.7928 1.7928 1.9396 4.6082.4404 6.5684l3.5667 3.5667-.9428.9428-3.5667-3.5667Z" clip-rule="evenodd"/></svg>