<svg xmlns="http://www.w3.org/2000/svg" fill="none" viewBox="0 0 100 32"><rect width="100" height="32" fill="#F9F9F9" rx="16"/><path fill="#000" d="M23.8762 21h-1.6307l3.664-10.1818h1.7749L31.3485 21h-1.6307l-2.8786-8.3324h-.0795L23.8762 21Zm.2734-3.9872h5.2898v1.2926h-5.2898v-1.2926ZM32.6995 21v-7.6364h1.4865v3.2017h.7159l2.5206-3.2017h1.8395l-2.9581 3.7138L39.2968 21h-1.8445l-2.3018-3.0526h-.9645V21h-1.4865Zm7.7519 0v-7.6364h1.4865v3.2017h.716l2.5205-3.2017h1.8395l-2.9581 3.7138L47.0487 21h-1.8444l-2.3019-3.0526h-.9645V21h-1.4865Zm9.9743.169c-.4839 0-.9214-.0895-1.3125-.2684-.3911-.1823-.701-.4458-.9297-.7905-.2254-.3447-.3381-.7673-.3381-1.2678 0-.4308.0829-.7855.2486-1.0639a1.8345 1.8345 0 0 1 .6712-.6612c.2817-.1624.5966-.2851.9446-.3679a9.3829 9.3829 0 0 1 1.0639-.1889c.4574-.0531.8286-.0961 1.1136-.1293.2851-.0365.4922-.0945.6215-.174.1293-.0795.1939-.2088.1939-.3878v-.0348c0-.4342-.1227-.7706-.3679-1.0092-.242-.2387-.6032-.358-1.0838-.358-.5005 0-.8949.1111-1.1833.3331-.285.2188-.4822.4624-.5916.7308l-1.397-.3181c.1657-.464.4077-.8386.7259-1.1236.3215-.2884.691-.4972 1.1086-.6264.4176-.1326.8568-.1989 1.3175-.1989.3049 0 .6281.0365.9695.1094.3446.0696.6661.1988.9644.3878.3016.1889.5486.459.7408.8103.1922.348.2884.8005.2884 1.3573V21h-1.4517v-1.044h-.0597c-.0961.1922-.2403.3811-.4325.5667-.1923.1856-.4392.3398-.7408.4624-.3016.1226-.6629.1839-1.0838.1839Zm.3231-1.1931c.411 0 .7624-.0813 1.054-.2437.295-.1624.5187-.3745.6712-.6363.1558-.2652.2337-.5486.2337-.8502v-.9843c-.0531.053-.1558.1027-.3083.1491-.1491.0431-.3198.0812-.5121.1144-.1922.0298-.3795.058-.5617.0845a65.6526 65.6526 0 0 0-.4574.0596c-.2884.0365-.5519.0978-.7905.184-.2353.0862-.4243.2104-.5668.3729-.1392.159-.2088.3712-.2088.6363 0 .3679.1359.6463.4077.8352.2718.1856.6181.2785 1.039.2785Zm6.0915 3.8877c-.2221 0-.4243-.0182-.6065-.0547-.1823-.0331-.3182-.0696-.4077-.1093l.3579-1.2181c.2718.073.5138.1044.7259.0945.2121-.0099.3994-.0895.5618-.2386.1657-.1492.3115-.3928.4375-.7309l.1839-.5071-2.794-7.7358H56.89l1.934 5.9262h.0795l1.9339-5.9262h1.5959l-3.147 8.6556c-.1458.3977-.3314.7341-.5568 1.0092-.2254.2784-.4939.4872-.8054.6264-.3116.1392-.6728.2088-1.0838.2088Zm12.1655-7.3231v1.2876h-4.1364v-1.2876h4.1364Zm-3.7188-3.1769V21h-1.4567v-7.6364h1.4567Zm4.7578 0V21h-1.4517v-7.6364h1.4517Zm1.0416 1.2827v-1.2827h6.4432v1.2827h-2.4908V21h-1.4517v-6.3537h-2.5007Z"/></svg>